<svg xmlns="http://www.w3.org/2000/svg" version="1.1" xmlns:xlink="http://www.w3.org/1999/xlink" xmlns:svgjs="http://svgjs.dev/svgjs" width="100%" height="100%" viewBox="0 0 1000 600"><rect width="1000" height="600" x="0" y="0" fill="#191919"/><g><rect width="333.3333333333333" height="333.3333333333333" rx="13.333333333333334" ry="13.333333333333334" y="328.66665799092186" fill="#b88746" transform="matrix(0.40790423769666934,0,0,0.40790423769666934,0,97.95142327683195)" x="306.4446105957031"/><path d="M472.3734421332767 490.1250002773332L472.3734421332767 490.1250002773332Q468.6408032553746 490.1250002773332 466.9625625195737 488.44675954153223Q465.2843217837727 486.7974539908313 461.75422920157075 481.3865743771283L461.75422920157075 481.3865743771283L436.34913668375646 442.61342634310654Q435.07598853935576 440.5300930159054 433.4266829886549 439.806713388405Q431.7484422528539 439.08333376090457 430.099136702153 439.08333376090457L430.099136702153 439.08333376090457L426.540108934851 439.08333376090457Q423.8491367205495 439.08333376090457 422.4891830208487 440.6458337563054Q421.12922932114793 442.2083337517063 421.12922932114793 445.5358800382082L421.12922932114793 445.5358800382082L421.12922932114793 551.5833334297677L423.21256264834915 551.5833334297677L423.21256264834915 445.5358800382082Q423.21256264834915 443.88657448750723 423.8491367205495 442.52662078780645Q424.45677560764983 441.1666670881057 426.540108934851 441.1666670881057L426.540108934851 441.1666670881057L429.66510892565276 441.1666670881057Q431.1408033657535 441.1666670881057 432.2692755846542 441.57175967950593Q433.4266829886549 442.0057874560062 434.67089594795556 444.08912078320736L434.67089594795556 444.08912078320736L460.0759884657698 482.42824104072884Q463.8375625287719 488.041666950132 465.80515511557303 490.1250002773332Q467.80168288747416 492.20833360453435 472.3734421332767 492.20833360453435L472.3734421332767 492.20833360453435Q476.9741365641793 492.20833360453435 478.9417291509804 490.1250002773332Q480.90932173778145 488.041666950132 484.67089580078357 482.42824104072884L484.67089580078357 482.42824104072884L510.07598831859787 444.08912078320736Q511.34913646299856 442.0057874560062 512.3908031265992 441.57175967950593Q513.4324697901998 441.1666670881057 514.8792290452005 441.1666670881057L514.8792290452005 441.1666670881057L518.0042290360022 441.1666670881057Q520.0875623632035 441.1666670881057 520.8109419907039 442.52662078780645Q521.5343216182042 443.88657448750723 521.5343216182042 445.5358800382082L521.5343216182042 445.5358800382082L521.5343216182042 551.5833334297677L523.6176549454054 551.5833334297677L523.6176549454054 445.5358800382082Q523.6176549454054 442.2083337517063 522.2866364308047 440.6458337563054Q520.9266827311039 439.08333376090457 518.0042290360022 439.08333376090457L518.0042290360022 439.08333376090457L514.4741364538003 439.08333376090457Q512.7958957179994 439.08333376090457 511.2333957225985 439.806713388405Q509.6708957271976 440.5300930159054 508.4266827678969 442.61342634310654L508.4266827678969 442.61342634310654L482.9926550649826 481.3865743771283Q479.46256248278064 486.7974539908313 477.7843217469797 488.44675954153223Q476.1350161962788 490.1250002773332 472.3734421332767 490.1250002773332ZM437.5933496430572 570.3333333745782L437.5933496430572 570.3333333745782L406.54589603073975 570.3333333745782Q402.58177567203757 570.3333333745782 400.8167293809366 568.5682870834772Q399.0516830898356 566.8032407923762 399.0516830898356 562.839120433674L399.0516830898356 562.839120433674L399.0516830898356 427.82754675699823Q399.0516830898356 423.86342639829604 400.8167293809366 422.09838010719506Q402.58177567203757 420.33333381609407 406.54589603073975 420.33333381609407L406.54589603073975 420.33333381609407L440.08177556165856 420.33333381609407Q443.40932184816046 420.33333381609407 445.60839591576166 421.7800930710948Q447.8074699833629 423.2557875111957 449.65932182976394 426.58333379769755L449.65932182976394 426.58333379769755L468.40932177457444 460.5532411051166Q469.45098843817505 462.40509295151764 470.20330325077543 463.2442133194181Q470.92668287827587 464.0833336873186 472.17089583757655 464.0833336873186L472.17089583757655 464.0833336873186L474.05168286907764 464.0833336873186Q475.2958958283783 464.0833336873186 476.01927545587876 463.2442133194181Q476.74265508337913 462.40509295151764 477.7843217469797 460.5532411051166L477.7843217469797 460.5532411051166L496.33177539609017 426.58333379769755Q498.2125624275912 423.2557875111957 500.4116364951924 421.7800930710948Q502.58177537769365 420.33333381609407 505.9093216641955 420.33333381609407L505.9093216641955 420.33333381609407L539.6766826759144 420.33333381609407Q543.6408030346166 420.33333381609407 545.4058493257177 422.09838010719506Q547.1708956168186 423.86342639829604 547.1708956168186 427.82754675699823L547.1708956168186 427.82754675699823L547.1708956168186 562.839120433674Q547.1708956168186 566.8032407923762 545.4058493257177 568.5682870834772Q543.6408030346166 570.3333333745782 539.6766826759144 570.3333333745782L539.6766826759144 570.3333333745782L507.58756239999644 570.3333333745782Q503.6234420412942 570.3333333745782 501.8583957501932 568.5682870834772Q500.0933494590922 566.8032407923762 500.0933494590922 562.839120433674L500.0933494590922 562.839120433674L500.0933494590922 489.48842620513284L487.79589579158534 512.2025465086456Q485.9151087600843 515.7615742759476 483.31094210108284 517.3240742713484Q480.7067754420814 518.8865742667493 476.74265508337913 518.8865742667493L476.74265508337913 518.8865742667493L468.40932177457444 518.8865742667493Q464.47413660097226 518.8865742667493 461.8699699419708 517.3240742713484Q459.26580328296933 515.7615742759476 457.3850162514683 512.2025465086456L457.3850162514683 512.2025465086456L445.08756258396136 489.48842620513284L445.08756258396136 562.839120433674Q445.08756258396136 566.8032407923762 443.3225162928604 568.5682870834772Q441.5574700017594 570.3333333745782 437.5933496430572 570.3333333745782Z " fill="#191919" transform="matrix(0.40790423769666934,0,0,0.40790423769666934,0,97.95142327683195)"/><path d="M793.5001804691033 490.3333321030124L793.5001804691033 490.3333321030124Q789.9168471357699 490.3333321030124 788.3057360246588 488.7222209919013Q786.6946249135477 487.13888765856797 783.3057360246588 481.9444432141235L783.3057360246588 481.9444432141235L758.9168471357699 444.7222209919013Q757.6946249135477 442.7222209919013 756.1112915802144 442.0277765474568Q754.5001804691033 441.33333210301237 752.9168471357699 441.33333210301237L752.9168471357699 441.33333210301237L749.5001804691033 441.33333210301237Q746.9168471357699 441.33333210301237 745.6112915802144 442.83333210301237Q744.3057360246588 444.33333210301237 744.3057360246588 447.5277765474568L744.3057360246588 447.5277765474568L744.3057360246588 549.3333321030124L746.3057360246588 549.3333321030124L746.3057360246588 447.5277765474568Q746.3057360246588 445.9444432141235 746.9168471357699 444.63888765856797Q747.5001804691033 443.33333210301237 749.5001804691033 443.33333210301237L749.5001804691033 443.33333210301237L752.5001804691033 443.33333210301237Q753.9168471357699 443.33333210301237 755.0001804691033 443.7222209919013Q756.1112915802144 444.13888765856797 757.3057360246588 446.13888765856797L757.3057360246588 446.13888765856797L781.6946249135477 482.9444432141235Q785.3057360246588 488.3333321030124 787.1946249135477 490.3333321030124Q789.1112915802144 492.3333321030124 793.5001804691033 492.3333321030124L793.5001804691033 492.3333321030124Q797.9168471357699 492.3333321030124 799.8057360246588 490.3333321030124Q801.6946249135477 488.3333321030124 805.3057360246588 482.9444432141235L805.3057360246588 482.9444432141235L829.6946249135477 446.13888765856797Q830.9168471357699 444.13888765856797 831.9168471357699 443.7222209919013Q832.9168471357699 443.33333210301237 834.3057360246588 443.33333210301237L834.3057360246588 443.33333210301237L837.3057360246588 443.33333210301237Q839.3057360246588 443.33333210301237 840.0001804691033 444.63888765856797Q840.6946249135477 445.9444432141235 840.6946249135477 447.5277765474568L840.6946249135477 447.5277765474568L840.6946249135477 549.3333321030124L842.6946249135477 549.3333321030124L842.6946249135477 447.5277765474568Q842.6946249135477 444.33333210301237 841.4168471357699 442.83333210301237Q840.1112915802144 441.33333210301237 837.3057360246588 441.33333210301237L837.3057360246588 441.33333210301237L833.9168471357699 441.33333210301237Q832.3057360246588 441.33333210301237 830.8057360246588 442.0277765474568Q829.3057360246588 442.7222209919013 828.1112915802144 444.7222209919013L828.1112915802144 444.7222209919013L803.6946249135476 481.9444432141235Q800.3057360246588 487.13888765856797 798.6946249135477 488.7222209919013Q797.1112915802144 490.3333321030124 793.5001804691033 490.3333321030124ZM760.1112915802144 567.3333321030124L760.1112915802144 567.3333321030124L730.3057360246588 567.3333321030124Q726.5001804691033 567.3333321030124 724.8057360246588 565.6388876585679Q723.1112915802144 563.9444432141236 723.1112915802144 560.1388876585679L723.1112915802144 560.1388876585679L723.1112915802144 430.5277765474568Q723.1112915802144 426.7222209919013 724.8057360246588 425.0277765474568Q726.5001804691033 423.33333210301237 730.3057360246588 423.33333210301237L730.3057360246588 423.33333210301237L762.5001804691033 423.33333210301237Q765.6946249135477 423.33333210301237 767.8057360246588 424.7222209919013Q769.9168471357699 426.13888765856797 771.6946249135477 429.3333321030124L771.6946249135477 429.3333321030124L789.6946249135477 461.9444432141235Q790.6946249135477 463.7222209919013 791.4168471357699 464.5277765474569Q792.1112915802144 465.3333321030124 793.3057360246588 465.3333321030124L793.3057360246588 465.3333321030124L795.1112915802144 465.3333321030124Q796.3057360246588 465.3333321030124 797.0001804691033 464.5277765474569Q797.6946249135477 463.7222209919013 798.6946249135477 461.9444432141235L798.6946249135477 461.9444432141235L816.5001804691033 429.3333321030124Q818.3057360246588 426.13888765856797 820.4168471357699 424.7222209919013Q822.5001804691033 423.33333210301237 825.6946249135477 423.33333210301237L825.6946249135477 423.33333210301237L858.1112915802144 423.33333210301237Q861.9168471357699 423.33333210301237 863.6112915802144 425.0277765474568Q865.3057360246588 426.7222209919013 865.3057360246588 430.5277765474568L865.3057360246588 430.5277765474568L865.3057360246588 560.1388876585679Q865.3057360246588 563.9444432141236 863.6112915802144 565.6388876585679Q861.9168471357699 567.3333321030124 858.1112915802144 567.3333321030124L858.1112915802144 567.3333321030124L827.3057360246588 567.3333321030124Q823.5001804691033 567.3333321030124 821.8057360246588 565.6388876585679Q820.1112915802144 563.9444432141236 820.1112915802144 560.1388876585679L820.1112915802144 560.1388876585679L820.1112915802144 489.7222209919013L808.3057360246588 511.5277765474568Q806.5001804691033 514.9444432141236 804.0001804691033 516.4444432141236Q801.5001804691033 517.9444432141236 797.6946249135477 517.9444432141236L797.6946249135477 517.9444432141236L789.6946249135477 517.9444432141236Q785.9168471357699 517.9444432141236 783.4168471357699 516.4444432141236Q780.9168471357699 514.9444432141236 779.1112915802144 511.5277765474568L779.1112915802144 511.5277765474568L767.3057360246588 489.7222209919013L767.3057360246588 560.1388876585679Q767.3057360246588 563.9444432141236 765.6112915802144 565.6388876585679Q763.9168471357699 567.3333321030124 760.1112915802144 567.3333321030124ZM913.1112915802144 512.9444432141236L913.1112915802144 506.7222209919013Q913.1112915802144 501.3333321030124 914.0001804691033 496.7222209919013Q914.9168471357699 492.13888765856797 916.3057360246588 488.13888765856797L916.3057360246588 488.13888765856797L929.1112915802144 455.3333321030124Q931.1112915802144 450.3333321030124 933.5001804691033 446.83333210301237Q935.9168471357699 443.33333210301237 941.9168471357699 443.33333210301237L941.9168471357699 443.33333210301237L961.5001804691033 443.33333210301237Q967.1112915802144 443.33333210301237 969.5001804691033 446.83333210301237Q971.91684713577 450.3333321030124 974.1112915802144 455.5277765474568L974.1112915802144 455.5277765474568L987.91684713577 488.13888765856797Q989.3057360246588 492.13888765856797 990.1946249135477 496.7222209919013Q991.1112915802144 501.3333321030124 991.1112915802144 506.7222209919013L991.1112915802144 506.7222209919013L991.1112915802144 512.9444432141236L913.1112915802144 512.9444432141236ZM945.1112915802144 465.3333321030124L945.1112915802144 465.3333321030124L935.6946249135477 495.7222209919013L967.1112915802144 495.7222209919013L957.6946249135477 465.3333321030124Q956.9168471357699 463.5277765474569 956.0001804691033 462.7222209919013Q955.1112915802144 461.9444432141235 953.91684713577 461.9444432141235L953.91684713577 461.9444432141235L948.91684713577 461.9444432141235Q947.6946249135477 461.9444432141235 946.8057360246588 462.7222209919013Q945.91684713577 463.5277765474569 945.1112915802144 465.3333321030124ZM991.1112915802144 514.9444432141236L991.1112915802144 549.3333321030124L993.1112915802144 549.3333321030124L993.1112915802144 506.7222209919013Q993.1112915802144 501.13888765856797 992.1946249135477 496.4444432141235Q991.3057360246588 491.7222209919013 989.6946249135476 487.3333321030124L989.6946249135476 487.3333321030124L975.91684713577 454.7222209919013Q973.5001804691033 448.9444432141235 970.8057360246588 445.13888765856797Q968.1112915802144 441.33333210301237 961.5001804691033 441.33333210301237L961.5001804691033 441.33333210301237L941.9168471357699 441.33333210301237Q935.1112915802144 441.33333210301237 932.3057360246588 445.13888765856797Q929.5001804691033 448.9444432141235 927.3057360246588 454.5277765474568L927.3057360246588 454.5277765474568L914.5001804691033 487.3333321030124Q912.9168471357699 491.7222209919013 912.0001804691033 496.4444432141235Q911.1112915802144 501.13888765856797 911.1112915802144 506.7222209919013L911.1112915802144 506.7222209919013L911.1112915802144 549.3333321030124L913.1112915802144 549.3333321030124L913.1112915802144 514.9444432141236L991.1112915802144 514.9444432141236ZM933.6946249135477 532.1388876585679L933.6946249135477 560.1388876585679Q933.6946249135477 563.9444432141236 932.0001804691033 565.6388876585679Q930.3057360246588 567.3333321030124 926.5001804691033 567.3333321030124L926.5001804691033 567.3333321030124L897.1112915802144 567.3333321030124Q893.3057360246588 567.3333321030124 891.6112915802144 565.6388876585679Q889.9168471357699 563.9444432141236 889.9168471357699 560.1388876585679L889.9168471357699 560.1388876585679L889.9168471357699 507.3333321030124Q889.9168471357699 501.3333321030124 891.8057360246588 493.5277765474568Q893.6946249135477 485.7222209919013 897.6946249135476 475.3333321030124L897.6946249135476 475.3333321030124L915.1112915802144 429.9444432141235Q916.3057360246588 426.5277765474568 918.8057360246588 424.9444432141235Q921.3057360246588 423.33333210301237 925.3057360246588 423.33333210301237L925.3057360246588 423.33333210301237L979.1112915802144 423.33333210301237Q982.91684713577 423.33333210301237 985.41684713577 424.9444432141235Q987.91684713577 426.5277765474568 989.1112915802144 429.9444432141235L989.1112915802144 429.9444432141235L1006.5001804691033 475.3333321030124Q1010.5001804691033 485.7222209919013 1012.41684713577 493.5277765474568Q1014.3057360246588 501.3333321030124 1014.3057360246588 507.3333321030124L1014.3057360246588 507.3333321030124L1014.3057360246588 560.1388876585679Q1014.3057360246588 563.9444432141236 1012.6112915802144 565.6388876585679Q1010.91684713577 567.3333321030124 1007.1112915802144 567.3333321030124L1007.1112915802144 567.3333321030124L976.91684713577 567.3333321030124Q972.91684713577 567.3333321030124 971.0001804691033 565.6388876585679Q969.1112915802144 563.9444432141236 969.1112915802144 560.1388876585679L969.1112915802144 560.1388876585679L969.1112915802144 532.1388876585679L933.6946249135477 532.1388876585679ZM1062.5001804691033 443.33333210301237L1106.1112915802144 443.33333210301237Q1116.6946249135476 443.33333210301237 1121.805736024659 449.13888765856797Q1126.91684713577 454.9444432141235 1126.91684713577 464.13888765856797L1126.91684713577 464.13888765856797L1126.91684713577 478.13888765856797Q1126.91684713577 489.13888765856797 1122.6946249135476 495.13888765856797Q1118.5001804691033 501.13888765856797 1106.1112915802144 501.13888765856797L1106.1112915802144 501.13888765856797L1062.5001804691033 501.13888765856797L1062.5001804691033 443.33333210301237ZM1099.1112915802144 459.33333210301237L1084.1112915802144 459.33333210301237L1084.1112915802144 484.9444432141235L1099.1112915802144 484.9444432141235Q1104.305736024659 484.9444432141235 1106.1112915802144 482.2222209919013Q1107.91684713577 479.5277765474568 1107.91684713577 475.5277765474569L1107.91684713577 475.5277765474569L1107.91684713577 468.7222209919013Q1107.91684713577 464.7222209919013 1106.1112915802144 462.0277765474569Q1104.305736024659 459.33333210301237 1099.1112915802144 459.33333210301237L1099.1112915802144 459.33333210301237ZM1060.5001804691033 549.3333321030124L1062.5001804691033 549.3333321030124L1062.5001804691033 502.9444432141235L1119.1112915802144 502.9444432141235Q1130.5001804691033 502.9444432141235 1135.91684713577 507.8333321030124Q1141.305736024659 512.7222209919013 1141.305736024659 522.5277765474568L1141.305736024659 522.5277765474568L1141.305736024659 549.3333321030124L1143.305736024659 549.3333321030124L1143.305736024659 522.5277765474568Q1143.305736024659 512.1388876585679 1137.305736024659 506.63888765856797Q1131.305736024659 501.13888765856797 1119.1112915802144 501.13888765856797L1119.1112915802144 501.13888765856797L1116.91684713577 501.13888765856797Q1124.1112915802144 498.9444432141235 1126.5001804691033 493.0277765474568Q1128.91684713577 487.13888765856797 1128.91684713577 477.9444432141235L1128.91684713577 477.9444432141235L1128.91684713577 464.13888765856797Q1128.91684713577 454.3333321030124 1123.305736024659 447.83333210301237Q1117.6946249135476 441.33333210301237 1106.1112915802144 441.33333210301237L1106.1112915802144 441.33333210301237L1060.5001804691033 441.33333210301237L1060.5001804691033 549.3333321030124ZM1076.91684713577 567.3333321030124L1076.91684713577 567.3333321030124L1046.1112915802144 567.3333321030124Q1042.305736024659 567.3333321030124 1040.6112915802144 565.6388876585679Q1038.91684713577 563.9444432141236 1038.91684713577 560.1388876585679L1038.91684713577 560.1388876585679L1038.91684713577 430.5277765474568Q1038.91684713577 426.7222209919013 1040.6112915802144 425.0277765474568Q1042.305736024659 423.33333210301237 1046.1112915802144 423.33333210301237L1046.1112915802144 423.33333210301237L1112.6946249135476 423.33333210301237Q1135.1112915802144 423.33333210301237 1143.6112915802144 432.63888765856797Q1152.1112915802144 441.9444432141235 1152.1112915802144 456.7222209919013L1152.1112915802144 456.7222209919013L1152.1112915802144 465.9444432141235Q1152.1112915802144 474.3333321030124 1149.6112915802144 480.2222209919013Q1147.1112915802144 486.13888765856797 1140.91684713577 488.7222209919013L1140.91684713577 488.7222209919013Q1151.6946249135476 489.9444432141235 1158.41684713577 497.5277765474568Q1165.1112915802144 505.13888765856797 1165.1112915802144 517.7222209919013L1165.1112915802144 517.7222209919013L1165.1112915802144 560.1388876585679Q1165.1112915802144 563.9444432141236 1163.4168471357698 565.6388876585679Q1161.6946249135476 567.3333321030124 1157.91684713577 567.3333321030124L1157.91684713577 567.3333321030124L1126.91684713577 567.3333321030124Q1123.1112915802144 567.3333321030124 1121.41684713577 565.6388876585679Q1119.6946249135476 563.9444432141236 1119.6946249135476 560.1388876585679L1119.6946249135476 560.1388876585679L1119.6946249135476 529.5277765474568Q1119.6946249135476 525.1388876585679 1118.0001804691033 523.0277765474568Q1116.305736024659 520.9444432141236 1112.1112915802144 520.9444432141236L1112.1112915802144 520.9444432141236L1084.1112915802144 520.9444432141236L1084.1112915802144 560.1388876585679Q1084.1112915802144 563.9444432141236 1082.4168471357698 565.6388876585679Q1080.6946249135476 567.3333321030124 1076.91684713577 567.3333321030124ZM1270.6946249135476 567.3333321030124L1270.6946249135476 567.3333321030124L1218.6946249135476 567.3333321030124Q1214.91684713577 567.3333321030124 1212.41684713577 565.9444432141236Q1209.91684713577 564.5277765474568 1208.5001804691033 560.7222209919013L1208.5001804691033 560.7222209919013L1188.91684713577 511.7222209919013Q1187.1112915802144 507.3333321030124 1185.91684713577 504.0277765474568Q1184.6946249135476 500.7222209919013 1183.91684713577 497.7222209919013Q1183.1112915802144 494.7222209919013 1182.805736024659 491.4444432141235Q1182.5001804691033 488.13888765856797 1182.5001804691033 483.3333321030124L1182.5001804691033 483.3333321030124L1182.5001804691033 430.5277765474568Q1182.5001804691033 426.7222209919013 1184.1946249135476 425.0277765474568Q1185.91684713577 423.33333210301237 1189.6946249135476 423.33333210301237L1189.6946249135476 423.33333210301237L1221.5001804691033 423.33333210301237Q1225.305736024659 423.33333210301237 1227.305736024659 425.0277765474568Q1229.305736024659 426.7222209919013 1229.305736024659 430.5277765474568L1229.305736024659 430.5277765474568L1229.305736024659 485.7222209919013Q1229.305736024659 487.7222209919013 1229.6946249135476 489.7222209919013Q1230.1112915802144 491.7222209919013 1230.9168471357698 493.9444432141235L1230.9168471357698 493.9444432141235L1240.305736024659 521.9444432141236Q1240.9168471357698 523.9444432141236 1241.6946249135476 524.6388876585679Q1242.5001804691033 525.3333321030125 1244.1112915802146 525.3333321030125L1244.1112915802146 525.3333321030125L1246.3057360246587 525.3333321030125Q1247.91684713577 525.3333321030125 1248.6946249135476 524.6388876585679Q1249.5001804691033 523.9444432141236 1250.1112915802144 521.9444432141236L1250.1112915802144 521.9444432141236L1259.5001804691033 493.7222209919013Q1260.305736024659 491.5277765474568 1260.6946249135476 489.5277765474568Q1261.1112915802146 487.5277765474568 1261.1112915802146 485.5277765474568L1261.1112915802146 485.5277765474568L1261.1112915802146 430.5277765474568Q1261.1112915802146 426.7222209919013 1262.8057360246587 425.0277765474568Q1264.5001804691033 423.33333210301237 1268.305736024659 423.33333210301237L1268.305736024659 423.33333210301237L1299.6946249135476 423.33333210301237Q1303.5001804691033 423.33333210301237 1305.1946249135476 425.0277765474568Q1306.9168471357698 426.7222209919013 1306.9168471357698 430.5277765474568L1306.9168471357698 430.5277765474568L1306.9168471357698 483.3333321030124Q1306.9168471357698 488.13888765856797 1306.6112915802146 491.4444432141235Q1306.3057360246587 494.7222209919013 1305.5001804691033 497.7222209919013Q1304.6946249135476 500.7222209919013 1303.5001804691033 504.0277765474568Q1302.3057360246587 507.3333321030124 1300.5001804691033 511.7222209919013L1300.5001804691033 511.7222209919013L1280.9168471357698 560.7222209919013Q1279.5001804691033 564.5277765474568 1277.0001804691033 565.9444432141236Q1274.5001804691033 567.3333321030124 1270.6946249135476 567.3333321030124ZM1207.1112915802144 441.33333210301237L1205.1112915802144 441.33333210301237L1205.1112915802144 484.5277765474568Q1205.1112915802144 490.13888765856797 1205.805736024659 494.8333321030124Q1206.5001804691033 499.5277765474568 1208.305736024659 503.9444432141235L1208.305736024659 503.9444432141235L1221.5001804691033 535.9444432141236Q1223.9168471357698 541.7222209919013 1226.91684713577 545.5277765474568Q1229.9168471357698 549.3333321030124 1236.1112915802146 549.3333321030124L1236.1112915802146 549.3333321030124L1253.6946249135476 549.3333321030124Q1259.9168471357698 549.3333321030124 1262.91684713577 545.5277765474568Q1265.9168471357698 541.7222209919013 1268.305736024659 535.9444432141236L1268.305736024659 535.9444432141236L1281.5001804691033 503.9444432141235Q1283.3057360246587 499.5277765474568 1284.0001804691033 494.8333321030124Q1284.6946249135476 490.13888765856797 1284.6946249135476 484.5277765474568L1284.6946249135476 484.5277765474568L1284.6946249135476 441.33333210301237L1282.6946249135476 441.33333210301237L1282.6946249135476 484.5277765474568Q1282.6946249135476 489.7222209919013 1281.9168471357698 494.4444432141235Q1281.1112915802144 499.13888765856797 1279.5001804691033 503.13888765856797L1279.5001804691033 503.13888765856797L1266.305736024659 535.1388876585679Q1264.305736024659 540.3333321030125 1261.805736024659 543.8333321030125Q1259.305736024659 547.3333321030125 1253.6946249135476 547.3333321030125L1253.6946249135476 547.3333321030125L1236.1112915802146 547.3333321030125Q1230.5001804691033 547.3333321030125 1228.0001804691033 543.8333321030125Q1225.5001804691033 540.3333321030125 1223.5001804691033 535.1388876585679L1223.5001804691033 535.1388876585679L1210.305736024659 503.13888765856797Q1208.6946249135476 499.13888765856797 1207.91684713577 494.4444432141235Q1207.1112915802144 489.7222209919013 1207.1112915802144 484.5277765474568L1207.1112915802144 484.5277765474568L1207.1112915802144 441.33333210301237ZM1431.5001804691033 567.3333321030124L1431.5001804691033 567.3333321030124L1338.6946249135478 567.3333321030124Q1334.91684713577 567.3333321030124 1333.1946249135478 565.6388876585679Q1331.5001804691033 563.9444432141236 1331.5001804691033 560.1388876585679L1331.5001804691033 560.1388876585679L1331.5001804691033 430.5277765474568Q1331.5001804691033 426.7222209919013 1333.1946249135478 425.0277765474568Q1334.91684713577 423.33333210301237 1338.6946249135478 423.33333210301237L1338.6946249135478 423.33333210301237L1431.5001804691033 423.33333210301237Q1435.305736024659 423.33333210301237 1437.0001804691035 425.0277765474568Q1438.6946249135478 426.7222209919013 1438.6946249135478 430.5277765474568L1438.6946249135478 430.5277765474568L1438.6946249135478 453.9444432141235Q1438.6946249135478 457.7222209919013 1437.0001804691035 459.4444432141235Q1435.305736024659 461.13888765856797 1431.5001804691033 461.13888765856797L1431.5001804691033 461.13888765856797L1376.305736024659 461.13888765856797L1376.305736024659 476.5277765474569L1415.305736024659 476.5277765474569Q1419.1112915802144 476.5277765474569 1420.8057360246587 478.2222209919013Q1422.5001804691033 479.9444432141235 1422.5001804691033 483.7222209919013L1422.5001804691033 483.7222209919013L1422.5001804691033 505.13888765856797Q1422.5001804691033 508.9444432141235 1420.8057360246587 510.63888765856797Q1419.1112915802144 512.3333321030125 1415.305736024659 512.3333321030125L1415.305736024659 512.3333321030125L1376.305736024659 512.3333321030125L1376.305736024659 529.5277765474568L1431.5001804691033 529.5277765474568Q1435.305736024659 529.5277765474568 1437.0001804691035 531.2222209919013Q1438.6946249135478 532.9444432141236 1438.6946249135478 536.7222209919013L1438.6946249135478 536.7222209919013L1438.6946249135478 560.1388876585679Q1438.6946249135478 563.9444432141236 1437.0001804691035 565.6388876585679Q1435.305736024659 567.3333321030124 1431.5001804691033 567.3333321030124ZM1420.6946249135478 549.3333321030124L1420.6946249135478 547.3333321030125L1355.305736024659 547.3333321030125L1355.305736024659 495.5277765474568L1404.5001804691033 495.5277765474568L1404.5001804691033 493.5277765474568L1355.305736024659 493.5277765474568L1355.305736024659 443.33333210301237L1420.6946249135478 443.33333210301237L1420.6946249135478 441.33333210301237L1353.305736024659 441.33333210301237L1353.305736024659 549.3333321030124L1420.6946249135478 549.3333321030124ZM1571.305736024659 567.3333321030124L1571.305736024659 567.3333321030124L1469.5001804691033 567.3333321030124Q1465.6946249135478 567.3333321030124 1464.0001804691033 565.6388876585679Q1462.3057360246587 563.9444432141236 1462.3057360246587 560.1388876585679L1462.3057360246587 560.1388876585679L1462.3057360246587 430.5277765474568Q1462.3057360246587 426.7222209919013 1464.0001804691033 425.0277765474568Q1465.6946249135478 423.33333210301237 1469.5001804691033 423.33333210301237L1469.5001804691033 423.33333210301237L1500.500180469103 423.33333210301237Q1504.3057360246587 423.33333210301237 1506.0001804691033 425.0277765474568Q1507.6946249135478 426.7222209919013 1507.6946249135478 430.5277765474568L1507.6946249135478 430.5277765474568L1507.6946249135478 529.5277765474568L1535.1112915802144 529.5277765474568L1535.1112915802144 497.13888765856797Q1535.1112915802144 493.3333321030124 1536.8057360246587 491.63888765856797Q1538.5001804691033 489.9444432141235 1542.305736024659 489.9444432141235L1542.305736024659 489.9444432141235L1571.305736024659 489.9444432141235Q1575.1112915802144 489.9444432141235 1576.805736024659 491.63888765856797Q1578.5001804691033 493.3333321030124 1578.5001804691033 497.13888765856797L1578.5001804691033 497.13888765856797L1578.5001804691033 560.1388876585679Q1578.5001804691033 563.9444432141236 1576.805736024659 565.6388876585679Q1575.1112915802144 567.3333321030124 1571.305736024659 567.3333321030124ZM1484.1112915802144 441.33333210301237L1484.1112915802144 549.3333321030124L1557.6946249135478 549.3333321030124L1557.6946249135478 507.9444432141235L1555.6946249135478 507.9444432141235L1555.6946249135478 547.3333321030125L1486.1112915802144 547.3333321030125L1486.1112915802144 441.33333210301237L1484.1112915802144 441.33333210301237ZM1710.305736024659 567.3333321030124L1710.305736024659 567.3333321030124L1608.500180469103 567.3333321030124Q1604.6946249135476 567.3333321030124 1603.0001804691033 565.6388876585679Q1601.305736024659 563.9444432141236 1601.305736024659 560.1388876585679L1601.305736024659 560.1388876585679L1601.305736024659 430.5277765474568Q1601.305736024659 426.7222209919013 1603.0001804691033 425.0277765474568Q1604.6946249135476 423.33333210301237 1608.500180469103 423.33333210301237L1608.500180469103 423.33333210301237L1639.5001804691033 423.33333210301237Q1643.305736024659 423.33333210301237 1645.0001804691033 425.0277765474568Q1646.6946249135478 426.7222209919013 1646.6946249135478 430.5277765474568L1646.6946249135478 430.5277765474568L1646.6946249135478 529.5277765474568L1674.1112915802144 529.5277765474568L1674.1112915802144 497.13888765856797Q1674.1112915802144 493.3333321030124 1675.805736024659 491.63888765856797Q1677.5001804691033 489.9444432141235 1681.305736024659 489.9444432141235L1681.305736024659 489.9444432141235L1710.305736024659 489.9444432141235Q1714.1112915802144 489.9444432141235 1715.8057360246587 491.63888765856797Q1717.5001804691033 493.3333321030124 1717.5001804691033 497.13888765856797L1717.5001804691033 497.13888765856797L1717.5001804691033 560.1388876585679Q1717.5001804691033 563.9444432141236 1715.8057360246587 565.6388876585679Q1714.1112915802144 567.3333321030124 1710.305736024659 567.3333321030124ZM1623.1112915802144 441.33333210301237L1623.1112915802144 549.3333321030124L1696.6946249135478 549.3333321030124L1696.6946249135478 507.9444432141235L1694.6946249135478 507.9444432141235L1694.6946249135478 547.3333321030125L1625.1112915802144 547.3333321030125L1625.1112915802144 441.33333210301237L1623.1112915802144 441.33333210301237ZM1862.3057360246587 461.3333321030124L1862.3057360246587 529.5277765474568Q1862.3057360246587 538.7222209919013 1859.6112915802144 546.2222209919013Q1856.91684713577 553.7222209919013 1850.000180469103 559.0277765474568Q1843.1112915802144 564.3333321030124 1831.0001804691035 567.3333321030124Q1818.91684713577 570.3333321030124 1800.3057360246587 570.3333321030124L1800.3057360246587 570.3333321030124Q1781.6946249135478 570.3333321030124 1769.5001804691035 567.3333321030124Q1757.3057360246587 564.3333321030124 1750.41684713577 559.0277765474568Q1743.500180469103 553.7222209919013 1740.8057360246587 546.2222209919013Q1738.1112915802144 538.7222209919013 1738.1112915802144 529.5277765474568L1738.1112915802144 529.5277765474568L1738.1112915802144 461.3333321030124Q1738.1112915802144 452.13888765856797 1740.8057360246587 444.63888765856797Q1743.500180469103 437.13888765856797 1750.41684713577 431.7222209919013Q1757.3057360246587 426.3333321030124 1769.5001804691035 423.33333210301237Q1781.6946249135478 420.33333210301237 1800.3057360246587 420.33333210301237L1800.3057360246587 420.33333210301237Q1818.91684713577 420.33333210301237 1831.0001804691035 423.33333210301237Q1843.1112915802144 426.3333321030124 1850.000180469103 431.7222209919013Q1856.91684713577 437.13888765856797 1859.6112915802144 444.63888765856797Q1862.3057360246587 452.13888765856797 1862.3057360246587 461.3333321030124L1862.3057360246587 461.3333321030124ZM1840.5001804691035 524.9444432141236L1840.5001804691035 524.9444432141236L1840.5001804691035 465.9444432141235Q1840.5001804691035 453.9444432141235 1831.91684713577 446.4444432141235Q1823.3057360246587 438.9444432141235 1799.91684713577 438.9444432141235L1799.91684713577 438.9444432141235Q1776.500180469103 438.9444432141235 1768.1112915802144 446.4444432141235Q1759.6946249135478 453.9444432141235 1759.6946249135478 465.9444432141235L1759.6946249135478 465.9444432141235L1759.6946249135478 524.9444432141236Q1759.6946249135478 536.9444432141236 1768.1112915802144 544.4444432141236Q1776.500180469103 551.9444432141236 1799.91684713577 551.9444432141236L1799.91684713577 551.9444432141236Q1823.3057360246587 551.9444432141236 1831.91684713577 544.4444432141236Q1840.5001804691035 536.9444432141236 1840.5001804691035 524.9444432141236ZM1761.6946249135478 524.9444432141236L1761.6946249135478 524.9444432141236L1761.6946249135478 465.9444432141235Q1761.6946249135478 454.7222209919013 1769.6946249135478 447.83333210301237Q1777.6946249135478 440.9444432141235 1799.91684713577 440.9444432141235L1799.91684713577 440.9444432141235Q1822.1112915802144 440.9444432141235 1830.3057360246587 447.83333210301237Q1838.500180469103 454.7222209919013 1838.500180469103 465.9444432141235L1838.500180469103 465.9444432141235L1838.500180469103 524.9444432141236Q1838.500180469103 536.1388876585679 1830.3057360246587 543.0277765474568Q1822.1112915802144 549.9444432141236 1799.91684713577 549.9444432141236L1799.91684713577 549.9444432141236Q1777.6946249135478 549.9444432141236 1769.6946249135478 543.0277765474568Q1761.6946249135478 536.1388876585679 1761.6946249135478 524.9444432141236ZM1783.500180469103 468.5277765474568L1783.500180469103 522.3333321030125Q1783.500180469103 526.3333321030125 1786.5001804691035 529.0277765474568Q1789.5001804691035 531.7222209919013 1800.3057360246587 531.7222209919013L1800.3057360246587 531.7222209919013Q1811.1112915802144 531.7222209919013 1814.1112915802144 529.0277765474568Q1817.1112915802144 526.3333321030125 1817.1112915802144 522.3333321030125L1817.1112915802144 522.3333321030125L1817.1112915802144 468.5277765474568Q1817.1112915802144 464.7222209919013 1814.1112915802144 462.0277765474569Q1811.1112915802144 459.33333210301237 1800.3057360246587 459.33333210301237L1800.3057360246587 459.33333210301237Q1789.5001804691035 459.33333210301237 1786.5001804691035 462.0277765474569Q1783.500180469103 464.7222209919013 1783.500180469103 468.5277765474568L1783.500180469103 468.5277765474568ZM2010.3057360246587 430.5277765474568L2010.3057360246587 529.5277765474568Q2010.3057360246587 538.7222209919013 2007.6112915802144 546.2222209919013Q2004.91684713577 553.7222209919013 1998.0001804691035 559.0277765474568Q1991.1112915802144 564.3333321030124 1979.1112915802144 567.3333321030124Q1967.1112915802144 570.3333321030124 1948.5001804691035 570.3333321030124L1948.5001804691035 570.3333321030124Q1929.91684713577 570.3333321030124 1917.91684713577 567.3333321030124Q1905.9168471357696 564.3333321030124 1899.0001804691035 559.0277765474568Q1892.1112915802144 553.7222209919013 1889.41684713577 546.2222209919013Q1886.6946249135478 538.7222209919013 1886.6946249135478 529.5277765474568L1886.6946249135478 529.5277765474568L1886.6946249135478 430.5277765474568Q1886.6946249135478 426.7222209919013 1888.41684713577 425.0277765474568Q1890.1112915802144 423.33333210301237 1893.91684713577 423.33333210301237L1893.91684713577 423.33333210301237L1925.3057360246587 423.33333210301237Q1929.1112915802144 423.33333210301237 1930.8057360246587 425.0277765474568Q1932.5001804691035 426.7222209919013 1932.5001804691035 430.5277765474568L1932.5001804691035 430.5277765474568L1932.5001804691035 521.7222209919013Q1932.5001804691035 525.7222209919013 1935.5001804691035 528.4444432141236Q1938.500180469103 531.1388876585679 1948.91684713577 531.1388876585679L1948.91684713577 531.1388876585679Q1959.500180469103 531.1388876585679 1962.500180469103 528.4444432141236Q1965.5001804691035 525.7222209919013 1965.5001804691035 521.7222209919013L1965.5001804691035 521.7222209919013L1965.5001804691035 430.5277765474568Q1965.5001804691035 426.7222209919013 1967.1946249135478 425.0277765474568Q1968.91684713577 423.33333210301237 1972.6946249135478 423.33333210301237L1972.6946249135478 423.33333210301237L2003.1112915802144 423.33333210301237Q2006.91684713577 423.33333210301237 2008.6112915802144 425.0277765474568Q2010.3057360246587 426.7222209919013 2010.3057360246587 430.5277765474568L2010.3057360246587 430.5277765474568ZM1910.6946249135478 441.33333210301237L1908.6946249135478 441.33333210301237L1908.6946249135478 524.7222209919013Q1908.6946249135478 536.7222209919013 1917.000180469103 544.2222209919013Q1925.3057360246587 551.7222209919013 1948.6946249135478 551.7222209919013L1948.6946249135478 551.7222209919013Q1972.1112915802144 551.7222209919013 1980.500180469103 544.2222209919013Q1988.91684713577 536.7222209919013 1988.91684713577 524.7222209919013L1988.91684713577 524.7222209919013L1988.91684713577 441.33333210301237L1986.91684713577 441.33333210301237L1986.91684713577 524.7222209919013Q1986.91684713577 535.9444432141236 1978.91684713577 542.8333321030125Q1970.91684713577 549.7222209919013 1948.6946249135478 549.7222209919013L1948.6946249135478 549.7222209919013Q1926.500180469103 549.7222209919013 1918.6112915802144 542.8333321030125Q1910.6946249135478 535.9444432141236 1910.6946249135478 524.7222209919013L1910.6946249135478 524.7222209919013L1910.6946249135478 441.33333210301237ZM2103.694624913548 567.3333321030124L2103.694624913548 567.3333321030124L2040.5001804691035 567.3333321030124Q2036.6946249135478 567.3333321030124 2035.0001804691035 565.6388876585679Q2033.3057360246587 563.9444432141236 2033.3057360246587 560.1388876585679L2033.3057360246587 560.1388876585679L2033.3057360246587 536.7222209919013Q2033.3057360246587 532.9444432141236 2035.0001804691035 531.2222209919013Q2036.6946249135478 529.5277765474568 2040.5001804691035 529.5277765474568L2040.5001804691035 529.5277765474568L2094.3057360246585 529.5277765474568Q2096.91684713577 529.5277765474568 2098.194624913548 527.8333321030125Q2099.5001804691037 526.1388876585679 2099.5001804691037 523.7222209919013L2099.5001804691037 523.7222209919013Q2099.5001804691037 520.3333321030125 2098.194624913548 518.7222209919013Q2096.91684713577 517.1388876585679 2094.3057360246585 516.9444432141236L2094.3057360246585 516.9444432141236L2064.3057360246585 512.7222209919013Q2050.3057360246585 510.7222209919013 2041.8057360246587 503.5277765474568Q2033.3057360246587 496.3333321030124 2033.3057360246587 479.5277765474568L2033.3057360246587 479.5277765474568L2033.3057360246587 458.5277765474568Q2033.3057360246587 441.5277765474568 2044.3057360246587 432.4444432141235Q2055.3057360246585 423.33333210301237 2074.694624913548 423.33333210301237L2074.694624913548 423.33333210301237L2130.694624913548 423.33333210301237Q2134.5001804691037 423.33333210301237 2136.194624913547 425.0277765474568Q2137.91684713577 426.7222209919013 2137.91684713577 430.5277765474568L2137.91684713577 430.5277765474568L2137.91684713577 454.3333321030124Q2137.91684713577 458.13888765856797 2136.194624913547 459.83333210301237Q2134.5001804691037 461.5277765474568 2130.694624913548 461.5277765474568L2130.694624913548 461.5277765474568L2084.111291580214 461.5277765474568Q2081.5001804691037 461.5277765474568 2080.111291580214 463.2222209919013Q2078.694624913548 464.9444432141235 2078.694624913548 467.5277765474568L2078.694624913548 467.5277765474568Q2078.694624913548 470.13888765856797 2080.111291580214 471.9444432141235Q2081.5001804691037 473.7222209919013 2084.111291580214 473.9444432141235L2084.111291580214 473.9444432141235L2113.91684713577 477.9444432141235Q2127.91684713577 479.9444432141235 2136.500180469103 487.13888765856797Q2145.111291580214 494.3333321030124 2145.111291580214 511.1388876585679L2145.111291580214 511.1388876585679L2145.111291580214 532.1388876585679Q2145.111291580214 549.1388876585679 2134.000180469103 558.2222209919013Q2122.91684713577 567.3333321030124 2103.694624913548 567.3333321030124ZM2119.91684713577 443.33333210301237L2119.91684713577 441.33333210301237L2075.500180469103 441.33333210301237Q2066.3057360246585 441.33333210301237 2060.694624913548 446.4444432141235Q2055.111291580214 451.5277765474569 2055.111291580214 459.5277765474568L2055.111291580214 459.5277765474568L2055.111291580214 475.9444432141235Q2055.111291580214 484.13888765856797 2058.41684713577 487.2222209919013Q2061.694624913548 490.3333321030124 2066.91684713577 491.3333321030124L2066.91684713577 491.3333321030124L2109.111291580214 499.9444432141235Q2114.694624913548 501.13888765856797 2118.000180469103 504.63888765856797Q2121.3057360246585 508.13888765856797 2121.3057360246585 517.5277765474568L2121.3057360246585 517.5277765474568L2121.3057360246585 529.1388876585679Q2121.3057360246585 537.1388876585679 2115.8057360246585 542.2222209919013Q2110.3057360246585 547.3333321030125 2101.111291580214 547.3333321030125L2101.111291580214 547.3333321030125L2051.3057360246585 547.3333321030125L2051.3057360246585 549.3333321030124L2101.111291580214 549.3333321030124Q2111.3057360246585 549.3333321030124 2117.3057360246585 543.6388876585679Q2123.3057360246585 537.9444432141236 2123.3057360246585 529.1388876585679L2123.3057360246585 529.1388876585679L2123.3057360246585 517.5277765474568Q2123.3057360246585 507.13888765856797 2119.41684713577 503.13888765856797Q2115.5001804691037 499.13888765856797 2109.500180469103 497.9444432141235L2109.500180469103 497.9444432141235L2067.3057360246585 489.3333321030124Q2062.694624913548 488.5277765474568 2059.91684713577 485.7222209919013Q2057.111291580214 482.9444432141235 2057.111291580214 475.9444432141235L2057.111291580214 475.9444432141235L2057.111291580214 459.5277765474568Q2057.111291580214 452.5277765474568 2062.111291580214 447.9444432141235Q2067.111291580214 443.33333210301237 2075.500180469103 443.33333210301237L2075.500180469103 443.33333210301237L2119.91684713577 443.33333210301237Z " fill="#b88746" transform="matrix(0.40790423769666934,0,0,0.40790423769666934,0,97.95142327683195)"/></g></svg>